<svg xmlns="http://www.w3.org/2000/svg" viewBox="0 0 165.47 153.7"><defs><style>.a{fill:#ff5a5f;}</style></defs><title>logo_green</title><path class="a" d="M84,14.56C97.48,5.8,111.85,2,127.5,5.29c35.12,7.39,49.78,50.16,27.14,78.58a27.68,27.68,0,0,0-4,7.73c-2.4,6.56-7.21,9.69-14,10.42-1,8.86-5.87,14-14.62,14.85-3.27,11.68-6.88,14.63-16.16,14.58-5.35,6-10,11.26-14.76,16.45-4.22,4.61-9.26,7.1-15.63,5.08S66,146.14,65.3,139.21c-8.65-1.14-14.29-5.64-15-15-9-1-14.06-5.81-14.9-14.82-9.28-1.31-14.46-6.08-14.86-15.79-.08-2-2.76-3.89-4.43-5.67C2.65,73.55-2.8,56.6,1.38,37.35,9,2.51,51.84-11.71,79.86,11,81.26,12.16,82.63,13.36,84,14.56Zm4.77,98.64c4.82,3.15,8.71,5.22,12,8,4.13,3.43,8,4.18,11.11,1.28,3.28-3.09,2.95-7.2-1.11-11.29-8.67-8.76-17.48-17.38-26.07-26.2-2.07-2.13-6.63-4.38-3-8s5.86.89,8,3c8.92,8.74,17.67,17.65,26.51,26.47,3.74,3.73,7.43,4.1,10.53,1.17s2.88-7.1-.76-10.94c-.46-.48-.92-1-1.39-1.43L99.53,70.2c-.82-.82-2.1-1.52-2.38-2.5A31.23,31.23,0,0,1,96.54,62c1.88.26,4.43-.17,5.55.89,9,8.62,17.8,17.52,26.65,26.33,6.06,6,9.44,6.91,13,3.38s2.67-7.3-3.09-13.06c-11.42-11.42-22.88-22.81-34.21-34.32-1.84-1.87-3.13-4.27-5-6.81C93.09,44.89,88.23,50.12,83.06,55c-11.6,11-29.25,9.81-37.81-3L78.11,19.65c-15.28-17-44.23-16.38-60.56,1s-13,49.11,7.36,65.21c3.16-3.45,6.37-7,9.65-10.52a13.36,13.36,0,0,1,14.09-4.07c5.61,1.57,9,5.42,10.21,11.17.26,1.18,1.32,3,2.22,3.1,8.37,1.35,12.15,6.74,13.18,14.68,8.8,1,13.82,5.64,14.56,13Zm-31.68-60c6.59,3.77,14.56,2.89,20.67-3,5.26-5.09,10.38-10.33,15.55-15.52,4.94-5,5.58-5,10.4-.19Q117.9,48.6,132,62.76c5.47,5.52,10.83,11.16,16.25,16.76,12.86-13.66,13.16-37.27,1.25-52.66-14.28-18.42-42.72-21.53-62.1-5.31C76.27,30.86,67.14,42.62,57.14,53.23ZM64,132c1.85-.59,3-.61,3.68-1.22,4.49-4.36,9.28-8.53,13-13.47,1.11-1.46,0-6.2-1.61-7.65s-6.18-1.94-7.85-.7a68.76,68.76,0,0,0-12.32,12.23c-1.17,1.45-1,4.94-.1,6.82s3.62,2.92,5.15,4Zm14.47,14.83c1.87-.49,3.11-.44,3.73-1,4.63-4.44,9.54-8.71,13.44-13.74,1.08-1.4-.19-5.76-1.71-7.75-2.13-2.77-5.82-2.63-8.47-.32a83.3,83.3,0,0,0-11.14,11.27c-1.31,1.69-1.53,5.16-.76,7.27s3.44,3.13,4.86,4.31ZM52.55,84.16c-1.47-1.81-2.61-4.5-4.5-5.21-2.1-.79-5.56-.67-7.22.62A84.3,84.3,0,0,0,29.51,90.68c-2.5,2.83-2.37,6.2.39,8.94s6.2,3.32,9.29.48C43,96.63,46.57,93,50.06,89.2,51.1,88.07,51.5,86.35,52.55,84.16ZM67.42,99.27C66,97.43,65,94.7,63.08,93.92c-2.07-.85-5.59-.84-7.24.42A86.83,86.83,0,0,0,44.5,105.42c-2.73,3-2.48,6.48.48,9.31s6.36,2.85,9.36.11c3.66-3.35,7.13-6.92,10.49-10.57C65.88,103.12,66.34,101.43,67.42,99.27Z" transform="translate(0 0.01)"/></svg>