<svg xmlns="http://www.w3.org/2000/svg" viewBox="0 0 165.49 153.7"><defs><style>.a{fill:#fff;}</style></defs><title>logo</title><path class="a" d="M130.32,66.7c13.43-8.76,27.8-12.56,43.45-9.27,35.12,7.39,49.78,50.16,27.14,78.58a27.68,27.68,0,0,0-4,7.73c-2.4,6.56-7.21,9.69-14,10.42-1,8.86-5.87,14-14.62,14.85-3.27,11.68-6.88,14.63-16.16,14.58-5.35,6-10,11.26-14.76,16.45-4.22,4.61-9.26,7.1-15.63,5.08s-9.53-6.84-10.17-13.77c-8.65-1.14-14.29-5.64-15-15-9-1-14.06-5.81-14.9-14.82-9.28-1.31-14.46-6.08-14.86-15.79-.08-2-2.76-3.89-4.43-5.67-13.46-14.38-18.91-31.33-14.73-50.58,7.57-34.84,50.46-49.06,78.48-26.32C127.53,64.3,128.9,65.5,130.32,66.7Zm4.77,98.64c4.82,3.15,8.71,5.22,12,8,4.13,3.43,8,4.18,11.11,1.28,3.28-3.09,2.95-7.2-1.11-11.29-8.67-8.76-17.48-17.38-26.07-26.21-2.07-2.13-6.63-4.38-3-8s5.86.89,8,3c8.92,8.74,17.67,17.65,26.51,26.47,3.74,3.73,7.43,4.1,10.53,1.17s2.88-7.1-.76-10.94c-.46-.48-.92-1-1.39-1.43l-25.11-25.05c-.82-.82-2.1-1.52-2.38-2.5a31.23,31.23,0,0,1-.61-5.69c1.88.26,4.43-.17,5.55.89,9,8.62,17.8,17.52,26.65,26.33,6.06,6,9.44,6.91,13,3.38s2.67-7.3-3.09-13.06c-11.42-11.42-22.88-22.81-34.21-34.32-1.84-1.87-3.13-4.27-5-6.81-6.35,6.47-11.21,11.7-16.38,16.62-11.6,11-29.25,9.81-37.81-3l32.86-32.39c-15.28-17-44.23-16.38-60.56,1S50.81,121.9,71.18,138c3.16-3.45,6.37-7,9.65-10.52,3.87-4.13,8.67-5.58,14.09-4.07,5.61,1.57,8.95,5.42,10.21,11.17.26,1.18,1.32,3,2.22,3.1,8.37,1.35,12.15,6.74,13.18,14.68C129.33,153.36,134.35,158,135.09,165.34Zm-31.68-60c6.59,3.77,14.56,2.89,20.67-3,5.26-5.09,10.38-10.33,15.55-15.52,4.94-5,5.58-5,10.4-.19q14.14,14.11,28.24,28.27c5.47,5.52,10.83,11.16,16.25,16.76C207.38,118,207.68,94.39,195.77,79c-14.28-18.42-42.72-21.53-62.1-5.31C122.54,83,113.41,94.76,103.41,105.37Zm6.8,78.83c1.85-.59,3-.61,3.68-1.22,4.49-4.36,9.28-8.53,13-13.47,1.11-1.46,0-6.2-1.61-7.65s-6.18-1.94-7.85-.7a68.76,68.76,0,0,0-12.27,12.19c-1.17,1.45-1,4.94-.1,6.82S108.68,183.06,110.21,184.19ZM124.68,199c1.87-.49,3.11-.44,3.73-1,4.63-4.44,9.54-8.71,13.44-13.74,1.08-1.4-.19-5.76-1.71-7.75-2.13-2.77-5.82-2.63-8.47-.32a83.3,83.3,0,0,0-11.14,11.27c-1.31,1.69-1.53,5.16-.76,7.27C120.49,196.65,123.21,197.82,124.68,199ZM98.82,136.3c-1.47-1.81-2.61-4.5-4.5-5.21-2.1-.79-5.56-.67-7.22.62a84.3,84.3,0,0,0-11.32,11.11c-2.5,2.83-2.37,6.2.39,8.94s6.2,3.32,9.29.48c3.78-3.47,7.38-7.14,10.87-10.9C97.37,140.21,97.77,138.49,98.82,136.3Zm14.87,15.11c-1.4-1.84-2.47-4.57-4.34-5.35-2.07-.85-5.59-.84-7.24.42a86.83,86.83,0,0,0-11.34,11.08c-2.73,3-2.48,6.48.48,9.31s6.36,2.85,9.36.11c3.66-3.35,7.13-6.92,10.49-10.57C112.15,155.26,112.61,153.57,113.69,151.41Z" transform="translate(-46.26 -52.13)"/></svg>